<svg xmlns="http://www.w3.org/2000/svg" viewBox="0 0 500 500" width="500" height="500">
  
  <!-- Círculo interior continuo -->
  <circle cx="250" cy="250" r="158.00" fill="none" stroke="#D4006A" stroke-width="3.80"/>
  <!-- Arcos exteriores -->
  <path d="M 426.59 294.03 A 182.00 182.00 0 0 1 294.03 426.59" fill="none" stroke="#D4006A" stroke-width="3.80" stroke-linecap="round"/>
  <path d="M 205.97 426.59 A 182.00 182.00 0 0 1 73.41 294.03" fill="none" stroke="#D4006A" stroke-width="3.80" stroke-linecap="round"/>
  <path d="M 73.41 205.97 A 182.00 182.00 0 0 1 205.97 73.41" fill="none" stroke="#D4006A" stroke-width="3.80" stroke-linecap="round"/>
  <path d="M 294.03 73.41 A 182.00 182.00 0 0 1 426.59 205.97" fill="none" stroke="#D4006A" stroke-width="3.80" stroke-linecap="round"/>
  <!-- Diamantes y puntos cardinales -->
  <polygon points="446.50,250.00 432.00,258.50 417.50,250.00 432.00,241.50" fill="#FF5C45"/>
  <circle cx="429.76" cy="221.53" r="4.20" fill="#FF5C45"/>
  <circle cx="429.76" cy="278.47" r="4.20" fill="#FF5C45"/>
  <polygon points="250.00,446.50 241.50,432.00 250.00,417.50 258.50,432.00" fill="#FF5C45"/>
  <circle cx="278.47" cy="429.76" r="4.20" fill="#FF5C45"/>
  <circle cx="221.53" cy="429.76" r="4.20" fill="#FF5C45"/>
  <polygon points="53.50,250.00 68.00,241.50 82.50,250.00 68.00,258.50" fill="#FF5C45"/>
  <circle cx="70.24" cy="278.47" r="4.20" fill="#FF5C45"/>
  <circle cx="70.24" cy="221.53" r="4.20" fill="#FF5C45"/>
  <polygon points="250.00,53.50 258.50,68.00 250.00,82.50 241.50,68.00" fill="#FF5C45"/>
  <circle cx="221.53" cy="70.24" r="4.20" fill="#FF5C45"/>
  <circle cx="278.47" cy="70.24" r="4.20" fill="#FF5C45"/>
  <!-- Monograma FC en Cormorant Garamond -->
  <path d="M144.84 301.69Q144.46 301.69 144.46 300.55Q144.46 299.41 144.84 299.41Q151.87 299.41 155.19 298.45Q158.52 297.50 159.75 294.66Q160.99 291.81 160.99 286.30L160.99 198.32Q160.99 192.81 159.85 190.06Q158.71 187.31 155.38 186.26Q152.06 185.22 145.59 185.22Q145.03 185.22 145.03 184.07Q145.03 182.94 145.59 182.94L223.12 182.94Q225.02 182.94 225.02 184.64L225.40 208.59Q225.40 209.16 224.35 209.25Q223.31 209.34 223.12 208.78Q221.79 198.32 215.71 192.91Q209.63 187.50 199.75 187.50L190.06 187.50Q181.70 187.50 178.85 189.78Q176 192.06 176 198.51L176 285.54Q176 291.24 177.52 294.18Q179.04 297.13 183.88 298.26Q188.73 299.41 198.23 299.41Q198.61 299.41 198.61 300.55Q198.61 301.69 198.23 301.69Q191.96 301.69 184.64 301.50Q177.33 301.31 168.21 301.31Q161.75 301.31 155.67 301.50Q149.59 301.69 144.84 301.69M213.62 260.26Q213.62 252.09 208.68 248.20Q203.74 244.31 192.91 244.31L168.78 244.31L168.78 239.94L193.48 239.94Q203.93 239.94 208.68 236.51Q213.43 233.09 213.43 226.25Q213.43 225.88 214.56 225.88Q215.71 225.88 215.71 226.25Q215.71 232.14 215.61 235.38Q215.52 238.61 215.52 242.22Q215.52 246.59 215.71 250.95Q215.90 255.32 215.90 260.26Q215.90 260.64 214.75 260.64Q213.62 260.64 213.62 260.26M313.94 180.84Q321.16 180.84 327.33 181.51Q333.50 182.18 338.92 183.69Q344.34 185.22 349.27 187.69Q350.80 188.25 351.08 188.92Q351.37 189.59 351.56 191.87L354.02 215.81Q354.02 216.19 352.98 216.47Q351.94 216.75 351.75 216Q347 200.22 337.31 192.15Q327.62 184.07 312.61 184.07Q297.41 184.07 286 191.11Q274.61 198.13 268.14 210.96Q261.69 223.78 261.69 241.26Q261.69 254.19 265.68 265.01Q269.67 275.85 276.79 283.92Q283.92 292 293.32 296.37Q302.73 300.74 313.56 300.74Q328.75 300.74 338.16 293.13Q347.56 285.54 353.26 269.95Q353.64 269.38 354.60 269.57Q355.55 269.76 355.55 270.33L353.46 292Q353.26 294.27 352.79 294.85Q352.31 295.42 350.99 296.18Q341.30 300.55 332.46 302.35Q323.63 304.16 313.56 304.16Q293.42 304.16 277.74 296.27Q262.06 288.38 253.14 274.42Q244.21 260.45 244.21 242.03Q244.21 228.34 249.43 217.13Q254.66 205.93 264.16 197.75Q273.66 189.59 286.29 185.22Q298.93 180.84 313.94 180.84" fill="#2B2435"/>
</svg>